<svg width="26" height="30" viewBox="0 0 26 30" fill="none" xmlns="http://www.w3.org/2000/svg">
<path d="M12.75 30C13.7161 30 14.6427 29.6162 15.3259 28.9331C16.0091 28.2499 16.3929 27.3234 16.3929 26.3573H9.10714C9.10714 27.3234 9.49094 28.2499 10.1741 28.9331C10.8573 29.6162 11.7839 30 12.75 30ZM14.5623 2.86035C14.5877 2.6071 14.5598 2.35134 14.4803 2.10955C14.4008 1.86776 14.2715 1.64532 14.1007 1.45658C13.93 1.26783 13.7215 1.11696 13.4889 1.01371C13.2562 0.910462 13.0045 0.857117 12.75 0.857117C12.4955 0.857117 12.2438 0.910462 12.0111 1.01371C11.7785 1.11696 11.57 1.26783 11.3993 1.45658C11.2285 1.64532 11.0992 1.86776 11.0197 2.10955C10.9402 2.35134 10.9123 2.6071 10.9377 2.86035C8.87895 3.27908 7.0282 4.39639 5.69882 6.02309C4.36944 7.64979 3.64312 9.68592 3.64286 11.7867C3.64286 13.7865 2.73214 22.7147 0 24.536H25.5C22.7679 22.7147 21.8571 13.7865 21.8571 11.7867C21.8571 7.37907 18.7243 3.69998 14.5623 2.86035Z" fill="#465062"/>
</svg>
